<svg width="24" height="24" viewBox="0 0 24 24" fill="none" xmlns="http://www.w3.org/2000/svg">
<path d="M12 22.7505C12.972 22.7505 13.8868 22.364 15.3057 21.7642C17.1987 20.9645 18.9084 20.2424 19.9268 19.6313C20.9327 19.0277 21.75 18.282 21.75 17.1616L21.75 6.50049C21.75 6.31028 21.6792 6.13661 21.5625 6.00439L18.2686 7.60303L15.3477 9.01709C13.4798 9.92092 12.7576 10.2505 12 10.2505C11.2424 10.2505 10.5202 9.92092 8.65234 9.01709L5.73145 7.60303L2.4375 6.00439C2.32081 6.13661 2.25 6.31028 2.25 6.50049L2.25 17.1616C2.25 18.282 3.06726 19.0277 4.07324 19.6313C5.09164 20.2424 6.8013 20.9645 8.69434 21.7642C10.1132 22.364 11.028 22.7505 12 22.7505ZM8.6709 13.3354C8.48571 13.7058 8.03547 13.8564 7.66504 13.6714L5.66504 12.6714C5.29456 12.4861 5.14386 12.035 5.3291 11.6646C5.51442 11.2942 5.96553 11.1444 6.33594 11.3296L8.33594 12.3296C8.70612 12.5149 8.85591 12.9651 8.6709 13.3354Z" fill="#2E3A83"/>
<path fill-rule="evenodd" clip-rule="evenodd" d="M12 1.25098C10.8275 1.25098 9.75551 1.75948 8.19088 2.50164L5.07878 3.97603C4.35402 4.3193 3.715 4.62196 3.26541 4.91927C2.81527 5.21694 2.25 5.70517 2.25 6.50098C2.25 7.29678 2.81527 7.78501 3.26541 8.08268C3.71499 8.37999 4.35401 8.68265 5.07876 9.02591L8.19089 10.5003C9.75551 11.2425 10.8275 11.751 12 11.751C13.1725 11.751 14.2445 11.2425 15.8091 10.5003L18.9212 9.02594C19.646 8.68266 20.285 8.38 20.7346 8.08268C21.1847 7.78501 21.75 7.29678 21.75 6.50098C21.75 5.70517 21.1847 5.21694 20.7346 4.91927C20.285 4.62196 19.646 4.31929 18.9212 3.97602L15.8091 2.50164C14.2445 1.75948 13.1725 1.25098 12 1.25098ZM8.84253 4.31496C10.6848 3.44222 11.3304 3.16113 12.0001 3.16113C12.6131 3.16113 13.2059 3.39666 14.7149 4.10591L7.06869 7.84879L5.99436 7.33984C5.18366 6.95578 4.67577 6.71247 4.35742 6.50204C4.67577 6.29161 5.18366 6.0483 5.99436 5.66424L8.84253 4.31496ZM9.28528 8.89818L16.9315 5.15529L18.0058 5.66424C18.8165 6.0483 19.3244 6.29161 19.6427 6.50204C19.3244 6.71247 18.8165 6.95578 18.0058 7.33984L15.1576 8.68913C13.3154 9.56187 12.6698 9.84295 12.0001 9.84295C11.387 9.84295 10.7942 9.60743 9.28528 8.89818Z" fill="#2E3A83"/>
</svg>
