<svg width="13" height="13" viewBox="0 0 13 13" fill="none" xmlns="http://www.w3.org/2000/svg">
<path d="M9.06641 3.2002C10.3174 3.2002 10.6762 3.2002 11.1071 3.53083C11.218 3.61595 11.3173 3.71525 11.4024 3.82618C11.7331 4.25707 11.7331 4.88256 11.7331 6.13353V8.53353C11.7331 10.042 11.7331 10.7963 11.2644 11.2649C10.7958 11.7335 10.0416 11.7335 8.53307 11.7335H4.26641C2.75791 11.7335 2.00366 11.7335 1.53504 11.2649C1.06641 10.7963 1.06641 10.042 1.06641 8.53353V6.13353C1.06641 4.88256 1.06641 4.25707 1.39704 3.82618C1.48216 3.71525 1.58146 3.61595 1.69239 3.53083C2.12328 3.2002 2.4821 3.2002 3.73307 3.2002" stroke="#818898" stroke-width="1.2" stroke-linecap="round"/>
<path d="M9.06771 3.73332L8.59527 2.55221C8.39143 2.04263 8.21405 1.46457 7.68992 1.20508C7.41032 1.06665 7.0739 1.06665 6.40104 1.06665C5.72819 1.06665 5.39176 1.06665 5.11216 1.20508C4.58803 1.46457 4.41065 2.04263 4.20682 2.55221L3.73438 3.73332" stroke="#818898" stroke-width="1.2" stroke-linecap="round" stroke-linejoin="round"/>
<path d="M8.26849 7.46676C8.26849 8.4977 7.43275 9.33343 6.40182 9.33343C5.37089 9.33343 4.53516 8.4977 4.53516 7.46676C4.53516 6.43583 5.37089 5.6001 6.40182 5.6001C7.43275 5.6001 8.26849 6.43583 8.26849 7.46676Z" stroke="#818898" stroke-width="1.2"/>
<path d="M6.40224 3.2002H6.40703" stroke="#818898" stroke-width="1.6" stroke-linecap="round" stroke-linejoin="round"/>
</svg>
