<svg width="16" height="16" viewBox="0 0 16 16" fill="none" xmlns="http://www.w3.org/2000/svg">
<path d="M4.5 3.5H5.5V4.5H4.5V3.5ZM4.5 5.5H5.5V6.5H4.5V5.5ZM4.5 7.5H5.5V8.5H4.5V7.5ZM4.5 9.5H5.5V10.5H4.5V9.5ZM6.5 3.5H7.5V4.5H6.5V3.5ZM10.5 7.5H11.5V8.5H10.5V7.5ZM10.5 5.5H11.5V6.5H10.5V5.5ZM6.5 5.5H7.5V6.5H6.5V5.5ZM10.5 9.5H11.5V10.5H10.5V9.5ZM6.5 7.5H7.5V8.5H6.5V7.5ZM10.5 11.5H11.5V12.5H10.5V11.5ZM6.5 9.5H7.5V10.5H6.5V9.5Z" fill="#2E3A83"/>
<path d="M14 13.5H13.5V4C13.5 3.86739 13.4473 3.74021 13.3536 3.64645C13.2598 3.55268 13.1326 3.5 13 3.5H9.5V2C9.5 1.86739 9.44732 1.74021 9.35355 1.64645C9.25979 1.55268 9.13261 1.5 9 1.5H3C2.86739 1.5 2.74021 1.55268 2.64645 1.64645C2.55268 1.74021 2.5 1.86739 2.5 2V13.5H2C1.86739 13.5 1.74021 13.5527 1.64645 13.6464C1.55268 13.7402 1.5 13.8674 1.5 14C1.5 14.1326 1.55268 14.2598 1.64645 14.3536C1.74021 14.4473 1.86739 14.5 2 14.5H14C14.1326 14.5 14.2598 14.4473 14.3536 14.3536C14.4473 14.2598 14.5 14.1326 14.5 14C14.5 13.8674 14.4473 13.7402 14.3536 13.6464C14.2598 13.5527 14.1326 13.5 14 13.5ZM3.5 2.5H8.5V12C8.5 12.1326 8.55268 12.2598 8.64645 12.3536C8.74021 12.4473 8.86739 12.5 9 12.5C9.13261 12.5 9.25979 12.4473 9.35355 12.3536C9.44732 12.2598 9.5 12.1326 9.5 12V4.5H12.5V13.5H7.5V12C7.5 11.8674 7.44732 11.7402 7.35355 11.6464C7.25979 11.5527 7.13261 11.5 7 11.5H5C4.86739 11.5 4.74021 11.5527 4.64645 11.6464C4.55268 11.7402 4.5 11.8674 4.5 12V13.5H3.5V2.5ZM6.5 13.5H5.5V12.5H6.5V13.5Z" fill="#2E3A83"/>
</svg>
