<svg width="24" height="24" viewBox="0 0 24 24" fill="none" xmlns="http://www.w3.org/2000/svg">
<path opacity="0.4" d="M12 22C17.5228 22 22 17.5228 22 12C22 6.47715 17.5228 2 12 2C6.47715 2 2 6.47715 2 12C2 17.5228 6.47715 22 12 22Z" fill="#818898"/>
<path d="M13.0618 11.9998L15.5318 9.52981C15.8248 9.23681 15.8248 8.76177 15.5318 8.46877C15.2388 8.17577 14.7638 8.17577 14.4708 8.46877L12.0008 10.9388L9.53075 8.46877C9.23775 8.17577 8.76275 8.17577 8.46975 8.46877C8.17675 8.76177 8.17675 9.23681 8.46975 9.52981L10.9398 11.9998L8.46975 14.4697C8.17675 14.7628 8.17675 15.2378 8.46975 15.5308C8.61575 15.6768 8.80775 15.7508 8.99975 15.7508C9.19175 15.7508 9.38375 15.6778 9.52975 15.5308L11.9997 13.0608L14.4697 15.5308C14.6157 15.6768 14.8077 15.7508 14.9997 15.7508C15.1917 15.7508 15.3837 15.6778 15.5297 15.5308C15.8227 15.2378 15.8227 14.7628 15.5297 14.4697L13.0618 11.9998Z" fill="#818898"/>
</svg>
