<svg width="24" height="24" viewBox="0 0 24 24" fill="none" xmlns="http://www.w3.org/2000/svg">
<path d="M17 2C19.2091 2 21 3.79086 21 6V12.3428C21 12.6506 20.9632 12.9549 20.8945 13.25H17C14.3766 13.25 12.25 15.3766 12.25 18V21.8945C11.9549 21.9632 11.6506 22 11.3428 22H7C4.79086 22 3 20.2091 3 18V6C3 3.79086 4.79086 2 7 2H17ZM20.1934 14.75C20.082 14.8978 19.9605 15.0395 19.8281 15.1719L14.1719 20.8281C14.0395 20.9605 13.8978 21.082 13.75 21.1934V18C13.75 16.2051 15.2051 14.75 17 14.75H20.1934ZM8 10.25C7.58579 10.25 7.25 10.5858 7.25 11C7.25 11.4142 7.58579 11.75 8 11.75H12C12.4142 11.75 12.75 11.4142 12.75 11C12.75 10.5858 12.4142 10.25 12 10.25H8ZM8 6.25C7.58579 6.25 7.25 6.58579 7.25 7C7.25 7.41421 7.58579 7.75 8 7.75H16C16.4142 7.75 16.75 7.41421 16.75 7C16.75 6.58579 16.4142 6.25 16 6.25H8Z" fill="white"/>
</svg>
