<svg width="36" height="36" viewBox="0 0 36 36" fill="none" xmlns="http://www.w3.org/2000/svg">
<path d="M4.5 27H3.75H4.5ZM4.5 9L5.25 9L4.5 9ZM10.5 3V2.25V3ZM25.5 3V2.25V3ZM31.5 9L30.75 9V9H31.5ZM31.5 18.5147L32.25 18.5147V18.5147H31.5ZM17.0147 33V32.25V32.25V33ZM10.5 33V33.75V33.75V33ZM29.7426 22.7574L29.2123 22.227V22.227L29.7426 22.7574ZM21.2574 31.2426L21.7877 31.773V31.773L21.2574 31.2426ZM19.5 27H18.75V27H19.5ZM25.5 21V20.25V20.25V21ZM12 9.75C11.5858 9.75 11.25 10.0858 11.25 10.5C11.25 10.9142 11.5858 11.25 12 11.25V10.5V9.75ZM24 11.25C24.4142 11.25 24.75 10.9142 24.75 10.5C24.75 10.0858 24.4142 9.75 24 9.75V10.5V11.25ZM12 17.25C11.5858 17.25 11.25 17.5858 11.25 18C11.25 18.4142 11.5858 18.75 12 18.75V18V17.25ZM18 18.75C18.4142 18.75 18.75 18.4142 18.75 18C18.75 17.5858 18.4142 17.25 18 17.25V18V18.75ZM4.5 27H5.25L5.25 9L4.5 9H3.75L3.75 27H4.5ZM10.5 3L10.5 3.75L25.5 3.75V3V2.25L10.5 2.25V3ZM31.5 9H30.75V18.5147H31.5H32.25V9H31.5ZM17.0147 33V32.25H10.5V33V33.75H17.0147V33ZM29.7426 22.7574L29.2123 22.227L20.727 30.7123L21.2574 31.2426L21.7877 31.773L30.273 23.2877L29.7426 22.7574ZM17.0147 33V33.75C18.8049 33.75 20.5218 33.0388 21.7877 31.773L21.2574 31.2426L20.727 30.7123C19.7425 31.6969 18.4071 32.25 17.0147 32.25V33ZM31.5 18.5147H30.75C30.75 19.9071 30.1969 21.2425 29.2123 22.227L29.7426 22.7574L30.273 23.2877C31.5388 22.0218 32.25 20.3049 32.25 18.5147L31.5 18.5147ZM4.5 9L5.25 9C5.25 6.1005 7.60051 3.75 10.5 3.75L10.5 3V2.25C6.77208 2.25 3.75 5.27208 3.75 9H4.5ZM4.5 27H3.75C3.75 30.7279 6.77208 33.75 10.5 33.75V33V32.25C7.6005 32.25 5.25 29.8995 5.25 27H4.5ZM25.5 3V3.75C28.3995 3.75 30.75 6.10051 30.75 9L31.5 9H32.25C32.25 5.27208 29.2279 2.25 25.5 2.25V3ZM19.5 33H20.25V27H19.5H18.75V33H19.5ZM25.5 21V21.75L31.5 21.75V21V20.25L25.5 20.25V21ZM19.5 27H20.25C20.25 24.1005 22.6005 21.75 25.5 21.75V21V20.25C21.7721 20.25 18.75 23.2721 18.75 27H19.5ZM12 10.5V11.25H24V10.5V9.75H12V10.5ZM12 18V18.75H18V18V17.25H12V18Z" fill="#4A4C56"/>
</svg>
