<svg width="88" height="88" viewBox="0 0 88 88" fill="none" xmlns="http://www.w3.org/2000/svg">
<g clip-path="url(#clip0_6307_62639)">
<path d="M79.6788 48.247C79.6788 70.2023 61.879 88 39.9247 88C34.5388 88 29.4047 86.9292 24.7218 84.9882C11.9225 79.6862 2.49494 67.8906 0.545882 53.7109C0.295747 51.9004 0.170784 50.0747 0.171882 48.247C0.171882 26.291 17.9695 8.49316 39.9249 8.49316C61.879 8.49316 79.6788 26.2908 79.6788 48.2473V48.247Z" fill="#ABB0CD"/>
<path d="M39.925 8.49316C37.8228 8.49316 35.7596 8.65765 33.7461 8.97184C52.7672 11.9403 67.3219 28.3923 67.3219 48.2473C67.3219 68.0996 52.7684 84.5513 33.7485 87.5208C35.7915 87.8399 37.8562 88.0002 39.924 88.0001C61.8789 88.0001 79.6787 70.2025 79.6787 48.2472C79.6787 26.291 61.8789 8.49316 39.9247 8.49316H39.925Z" fill="#CACEE2"/>
<path d="M84.6414 45.3084L61.9415 60.34C60.3251 61.4115 58.3651 61.8364 56.4501 61.5304C54.5308 61.225 52.5669 61.6439 50.9455 62.7174L47.9074 64.7309L30.8945 39.6527L35.0685 21.6206C35.3904 20.2289 35.553 18.8052 35.5532 17.3768C35.5532 13.7104 34.481 10.0915 32.4246 6.98506C31.9368 6.24942 31.6769 5.3862 31.6774 4.50353C31.6774 3.04534 32.385 1.61465 33.6928 0.748404C34.5479 0.181739 35.571 -0.0755426 36.5924 0.0192452C37.6138 0.114033 38.5721 0.555193 39.3083 1.26953L42.0126 3.88856C45.106 6.88857 47.4894 10.5423 48.9883 14.5824L50.4548 18.5301L65.5548 8.55342C67.9664 6.9567 71.2288 7.65503 72.769 10.125C74.254 12.5045 73.4913 15.6486 71.1516 17.1975C71.1234 17.2163 71.1214 17.2465 71.1308 17.2694C71.1442 17.2941 71.1724 17.311 71.2039 17.2976C71.7911 17.0718 72.415 16.9562 73.0441 16.9564C74.0324 16.9564 75.0121 17.241 75.85 17.7829C76.4443 18.1675 76.9524 18.6711 77.3424 19.2619C78.0929 20.3922 78.3651 21.7739 78.0991 23.1044C77.6988 25.1265 76.2291 26.1685 75.9404 26.3647C75.9166 26.3814 75.9004 26.4068 75.8951 26.4354C75.8899 26.464 75.8961 26.4935 75.9124 26.5176C75.9124 26.519 75.9144 26.5211 75.9158 26.5211C75.948 26.5666 76.0138 26.5795 76.0607 26.5499C76.4698 26.4511 76.8893 26.4015 77.3102 26.4021C78.3327 26.4021 79.3499 26.6929 80.2146 27.2441C80.7993 27.618 81.3163 28.1121 81.7164 28.7178C83.2862 31.0878 82.6377 34.2822 80.2649 35.8527C80.2065 35.8922 80.1481 35.9317 80.0896 35.9695C80.0561 35.9964 80.0461 36.0393 80.0635 36.0694C80.0669 36.0768 80.075 36.0849 80.0824 36.0883C80.1085 36.1089 80.1501 36.1112 80.1843 36.0849C81.6582 35.5827 83.2621 35.8109 84.5524 36.6469C85.1465 37.0281 85.6737 37.5419 86.0906 38.1714C87.6609 40.5437 87.0117 43.7381 84.6417 45.3084H84.6414Z" fill="#FDD7BD"/>
<path d="M48.1253 69.4908L38.5486 75.8327L24.7228 84.9885C11.9235 79.6858 2.49594 67.8921 0.546875 53.7112L16.5916 43.0859L26.3589 36.617C27.4835 35.8718 29.001 36.1813 29.7462 37.3079L48.8162 66.1016C49.5615 67.2283 49.252 68.7428 48.1253 69.4908Z" fill="#2E3A83"/>
<path d="M48.1236 69.4908L38.5469 75.8327L16.5898 43.0859L26.3572 36.617C27.4817 35.8718 28.9992 36.1813 29.7445 37.3079L48.8145 66.101C49.5598 67.2283 49.2502 68.7428 48.1236 69.4908Z" fill="#1C234F"/>
<path d="M75.8502 17.7817L68.2963 21.8242C67.2249 22.3964 65.8963 22.0975 65.1758 21.1221L71.1311 17.269C71.1445 17.2938 71.1727 17.3106 71.2041 17.2972C71.7914 17.0715 72.4152 16.9558 73.0444 16.9561C74.0334 16.9561 75.0124 17.2405 75.8502 17.7817ZM80.2148 27.2438L72.8256 31.1949C71.7541 31.7689 70.4254 31.4707 69.7043 30.4953L75.6595 26.6416L75.9166 26.5207C75.9489 26.5663 76.0146 26.5792 76.0617 26.5496C76.4708 26.4507 76.8903 26.4011 77.3112 26.4018C78.3337 26.4018 79.3508 26.6926 80.2148 27.2438ZM84.5533 36.6466L78.0449 40.1284C77.5269 40.405 76.9267 40.4862 76.3538 40.3573C75.7809 40.2284 75.2733 39.8979 74.9237 39.4261L80.0827 36.088C80.0976 36.0989 80.1158 36.1044 80.1343 36.1037C80.1529 36.1029 80.1706 36.096 80.1846 36.0839C81.6584 35.5823 83.2624 35.8106 84.5533 36.6466Z" fill="#FAC5AA"/>
</g>
<defs>
<clipPath id="clip0_6307_62639">
<rect width="88" height="88" fill="white"/>
</clipPath>
</defs>
</svg>
