<svg width="80" height="80" viewBox="0 0 80 80" fill="none" xmlns="http://www.w3.org/2000/svg">
<rect x="1.25" y="1.25" width="77.5" height="77.5" rx="38.75" fill="#CACEE2"/>
<rect x="1.25" y="1.25" width="77.5" height="77.5" rx="38.75" stroke="#E8EBFA" stroke-width="2.5"/>
<path d="M32.7089 50.6537C32.1633 51.1116 31.6909 51.3385 31.1989 51.3336C30.0653 51.3222 29.121 50.1627 27.2325 47.8438L24.7076 44.7434C23.6677 43.4666 23.5405 41.5656 24.3989 40.1311C25.3794 38.4926 27.2599 38.0336 28.7255 38.8558M38.7024 34.667C40.0208 33.2767 41.4278 31.8873 42.9625 30.4783C43.7028 29.7985 44.6256 29.5578 45.4987 29.7117" stroke="#2E3A83" stroke-width="2.2" stroke-linecap="round"/>
<path d="M44.0109 47.6853C47.7773 43.3196 51.4133 40.358 55.9806 36.164C57.3476 34.9086 57.5588 32.7082 56.4864 31.1492C55.3466 29.4923 53.1808 29.1611 51.7149 30.4783C47.5313 34.2376 44.2765 37.8572 41.189 41.726C41.0269 41.929 40.9459 42.0305 40.8619 42.0876C40.6486 42.2326 40.3822 42.2341 40.1676 42.0916C40.083 42.0355 40.0018 41.9359 39.8395 41.7368L38.1943 39.7188C36.6931 37.8775 34.0006 38.0813 32.7472 40.1311C31.8701 41.5656 32.0001 43.4666 33.0626 44.7434L35.6425 47.8438C37.5721 50.1627 38.537 51.3222 39.6953 51.3336C40.8536 51.3449 41.906 50.1251 44.0109 47.6853Z" stroke="#2E3A83" stroke-width="2.2"/>
</svg>
