<svg width="24" height="24" viewBox="0 0 24 24" fill="none" xmlns="http://www.w3.org/2000/svg">
<path fill-rule="evenodd" clip-rule="evenodd" d="M15.2357 7.5C15.4332 7.5 15.5321 7.50042 15.6693 7.51953C15.9453 7.55798 16.3476 7.72049 16.5727 7.88477C16.6846 7.96653 16.7357 8.01485 16.8363 8.1123C19.2516 10.4501 20.8806 13.5817 21.434 16.8955C21.7173 18.5918 21.0631 20.0805 19.9379 21.1201C18.8239 22.1494 17.2443 22.75 15.5971 22.75H8.40372C6.75656 22.75 5.17685 22.1493 4.0629 21.1201C2.93772 20.0805 2.28259 18.5918 2.56583 16.8955C3.23592 12.8831 5.31998 9.89716 7.13809 8.1377C7.23045 8.0483 7.32314 7.96076 7.42716 7.88477C7.6522 7.72045 8.05547 7.55799 8.33145 7.51953C8.46859 7.50045 8.56772 7.5 8.76505 7.5H15.2357ZM11.9135 11.0547C11.4993 11.0547 11.1635 11.3905 11.1635 11.8047V11.918C10.7752 12.0088 10.4168 12.1704 10.1156 12.3926C9.62803 12.7523 9.2504 13.31 9.2504 13.9941C9.2504 14.5757 9.46111 15.1399 10.016 15.5137C10.5075 15.8447 11.1695 15.9541 11.9135 15.9541C12.5667 15.9541 12.9073 16.0548 13.0688 16.1602C13.1627 16.2215 13.2503 16.311 13.2504 16.6152C13.2504 16.8372 13.1709 16.9554 13.0024 17.0566C12.7882 17.1851 12.4212 17.2773 11.9135 17.2773C11.3802 17.2773 10.9654 17.1022 10.7475 16.9072C10.4388 16.631 9.96512 16.6573 9.68887 16.9658C9.41264 17.2745 9.43881 17.7482 9.74747 18.0244C10.1237 18.3611 10.6196 18.5918 11.1635 18.7021V18.8047C11.1635 19.2189 11.4993 19.5547 11.9135 19.5547C12.3276 19.5546 12.6635 19.2188 12.6635 18.8047V18.7217C13.059 18.6601 13.4424 18.5423 13.7748 18.3428C14.3616 17.9903 14.7504 17.4015 14.7504 16.6152C14.7503 15.9117 14.4896 15.2956 13.8881 14.9033C13.354 14.5551 12.6513 14.4541 11.9135 14.4541C11.2662 14.4541 10.9712 14.3485 10.8539 14.2695C10.8002 14.2333 10.7504 14.1921 10.7504 13.9941C10.7504 13.8987 10.8015 13.7507 11.0063 13.5996C11.2108 13.4488 11.5291 13.333 11.9135 13.333C12.4482 13.3331 12.8288 13.5524 12.9857 13.7588C13.2364 14.0885 13.7068 14.152 14.0365 13.9014C14.3663 13.6507 14.4307 13.1804 14.1801 12.8506C13.8232 12.3812 13.2758 12.0623 12.6635 11.9189V11.8047C12.6635 11.3905 12.3276 11.0548 11.9135 11.0547ZM12.0004 1.25C12.6475 1.25013 13.1126 1.65921 13.3588 1.90625C13.6573 2.20579 13.895 2.65409 14.2738 2.85449C14.5869 3.01994 14.9907 2.85876 15.3031 2.77734C15.601 2.6998 16.0554 2.5825 16.5365 2.64648C16.7456 2.67431 17.0203 2.74054 17.2328 2.92969C17.4844 3.15368 17.5254 3.43281 17.4887 3.64355C17.4439 3.89998 17.2842 4.11041 17.1283 4.31055L16.2367 5.45996C16.0067 5.75687 15.7787 6.06172 15.4731 6.28613C15.2467 6.45237 14.96 6.5 14.6791 6.5H9.32071C9.03985 6.5 8.75314 6.45237 8.52676 6.28613C8.22135 6.06179 7.99395 5.75673 7.76407 5.45996L6.87149 4.31055C6.71563 4.11046 6.55688 3.89991 6.51212 3.64355C6.4754 3.4328 6.51539 3.15372 6.767 2.92969C6.97953 2.74045 7.2542 2.67433 7.46329 2.64648C7.94448 2.58244 8.39875 2.69979 8.69669 2.77734C9.00912 2.85872 9.41283 3.01977 9.72598 2.85449C10.1048 2.65409 10.3435 2.20579 10.642 1.90625C10.8883 1.65914 11.3534 1.25 12.0004 1.25Z" fill="#2E3A83"/>
</svg>
