<svg width="512" height="512" viewBox="0 0 512 512" fill="none" xmlns="http://www.w3.org/2000/svg">
<path d="M320.001 26.6665H192.001C76.0973 26.6665 26.668 76.1172 26.668 192V320C26.668 435.883 76.0973 485.333 192.001 485.333H320.001C435.905 485.333 485.335 435.883 485.335 320V192C485.335 76.1172 435.905 26.6665 320.001 26.6665ZM453.335 320C453.335 418.432 418.433 453.333 320.001 453.333H192.001C133.185 453.333 97.196 440.725 77.6333 409.707L170.924 347.115C176.504 343.522 183.068 341.763 189.697 342.084C196.326 342.405 202.688 344.791 207.895 348.907L214.999 355.008C226.392 364.459 240.729 369.631 255.532 369.631C270.335 369.631 284.672 364.459 296.065 355.008L384.833 278.848C390.43 274.393 397.371 271.967 404.524 271.967C411.677 271.967 418.618 274.393 424.215 278.848L453.377 303.872L453.335 320ZM453.335 261.696L444.993 254.549C433.6 245.099 419.263 239.926 404.46 239.926C389.657 239.926 375.32 245.099 363.927 254.549L275.201 330.667C269.609 335.111 262.676 337.53 255.532 337.53C248.388 337.53 241.455 335.111 235.863 330.667L228.759 324.565C218.252 315.866 205.228 310.773 191.607 310.04C177.986 309.306 164.491 312.97 153.111 320.491L65.0253 379.733C60.3874 360.171 58.237 340.101 58.6253 320V192C58.668 93.5678 93.5693 58.6665 192.001 58.6665H320.001C418.433 58.6665 453.335 93.5678 453.335 192V261.696ZM192.001 112C180.398 112 169.056 115.441 159.408 121.887C149.76 128.333 142.241 137.496 137.8 148.216C133.36 158.936 132.198 170.732 134.462 182.112C136.726 193.492 142.313 203.945 150.518 212.15C158.722 220.355 169.176 225.942 180.556 228.206C191.936 230.47 203.732 229.308 214.452 224.867C225.172 220.427 234.334 212.908 240.781 203.26C247.227 193.612 250.668 182.27 250.668 170.667C250.657 155.111 244.472 140.195 233.472 129.195C222.473 118.196 207.557 112.011 192.001 112ZM192.001 197.333C186.727 197.333 181.571 195.769 177.186 192.839C172.801 189.909 169.383 185.744 167.365 180.871C165.346 175.999 164.818 170.637 165.847 165.464C166.876 160.291 169.416 155.54 173.145 151.81C176.875 148.081 181.626 145.541 186.799 144.512C191.972 143.483 197.334 144.011 202.206 146.03C207.079 148.048 211.244 151.466 214.174 155.851C217.104 160.237 218.668 165.392 218.668 170.667C218.657 177.735 215.844 184.512 210.845 189.51C205.846 194.509 199.07 197.322 192.001 197.333Z" fill="black"/>
</svg>
