<svg width="16" height="16" viewBox="0 0 16 16" fill="none" xmlns="http://www.w3.org/2000/svg">
<path d="M8.0013 1.5C4.78464 1.5 2.16797 4.11667 2.16797 7.33333C2.16797 10.7453 5.2993 12.8133 7.3713 14.182L7.72397 14.416C7.80797 14.472 7.90464 14.5 8.0013 14.5C8.09797 14.5 8.19464 14.472 8.27864 14.416L8.63131 14.182C10.7033 12.8133 13.8346 10.7453 13.8346 7.33333C13.8346 4.11667 11.218 1.5 8.0013 1.5ZM8.08064 13.3473L8.0013 13.4001L7.92197 13.3473C5.9153 12.022 3.16797 10.2073 3.16797 7.33333C3.16797 4.668 5.33597 2.5 8.0013 2.5C10.6666 2.5 12.8346 4.668 12.8346 7.33333C12.8346 10.2073 10.0866 12.0227 8.08064 13.3473ZM8.0013 5.16667C6.80664 5.16667 5.83464 6.13867 5.83464 7.33333C5.83464 8.528 6.80664 9.5 8.0013 9.5C9.19597 9.5 10.168 8.528 10.168 7.33333C10.168 6.13867 9.19597 5.16667 8.0013 5.16667ZM8.0013 8.5C7.35797 8.5 6.83464 7.97667 6.83464 7.33333C6.83464 6.69 7.35797 6.16667 8.0013 6.16667C8.64464 6.16667 9.16797 6.69 9.16797 7.33333C9.16797 7.97667 8.64464 8.5 8.0013 8.5Z" fill="#2E3A83"/>
</svg>
