<svg width="20" height="20" viewBox="0 0 20 20" fill="none" xmlns="http://www.w3.org/2000/svg">
<path fill-rule="evenodd" clip-rule="evenodd" d="M10.002 1.04199C12.1879 1.04215 13.96 2.81397 13.96 5C13.96 6.81567 12.7373 8.34466 11.0705 8.81101C10.9343 8.84912 10.835 8.9702 10.835 9.11165V14.792C10.8348 15.252 10.4619 15.6248 10.002 15.625C9.54182 15.625 9.16814 15.2521 9.16797 14.792V9.11163C9.16797 8.97018 9.06867 8.84912 8.93246 8.81099C7.26582 8.34452 6.04297 6.81555 6.04297 5C6.04297 2.81387 7.81583 1.04199 10.002 1.04199Z" fill="#EB3D4D"/>
<path d="M7.30878 13.3011C7.67175 13.5841 7.7366 14.1077 7.45363 14.4707C6.74949 15.3739 6.28279 15.9762 6.02238 16.4367C5.89577 16.6605 5.85168 16.7947 5.83932 16.8677C5.83145 16.8887 5.82883 16.9413 5.88138 16.9846C5.90077 17.0106 6.01572 17.1411 6.65809 17.2171C7.27581 17.2902 8.14424 17.2917 9.4041 17.2917H10.6004C11.8602 17.2917 12.7287 17.2902 13.3464 17.2171C13.9887 17.1411 14.1037 17.0106 14.1231 16.9846C14.1695 16.9451 14.1705 16.8902 14.1652 16.8677C14.1528 16.7947 14.1087 16.6605 13.9821 16.4367C13.7217 15.9762 13.255 15.3739 12.5508 14.4707C12.2679 14.1077 12.3327 13.5841 12.6957 13.3011C13.0587 13.0181 13.5823 13.083 13.8653 13.446C14.515 14.2793 15.104 15.0347 15.4328 15.6162C15.7648 16.2031 16.0307 16.9372 15.6482 17.6787C15.5937 17.7845 15.5304 17.8853 15.4595 17.9804C15.0001 18.5969 14.257 18.7877 13.5423 18.8722C12.8146 18.9584 11.8464 18.9584 10.6577 18.9583H10.6577H9.34675H9.34674C8.15807 18.9584 7.18988 18.9584 6.46219 18.8722C5.74749 18.7877 5.00436 18.5969 4.54496 17.9804C4.47407 17.8853 4.41083 17.7845 4.35626 17.6787C3.97376 16.9372 4.23972 16.2031 4.57166 15.6162C4.9005 15.0347 5.48951 14.2793 6.13921 13.446C6.42218 13.083 6.94581 13.0181 7.30878 13.3011Z" fill="#EB3D4D"/>
</svg>
