<svg width="48" height="48" viewBox="0 0 48 48" fill="none" xmlns="http://www.w3.org/2000/svg">
<rect x="0.5" y="0.5" width="47" height="47" rx="11.5" fill="#EB3D4D"/>
<rect x="0.5" y="0.5" width="47" height="47" rx="11.5" stroke="#ECEFF3"/>
<path d="M27 29.625C26.9264 31.4769 25.3831 33.0494 23.3156 32.9988C22.8346 32.987 22.2401 32.8194 21.0511 32.484C18.1896 31.6768 15.7056 30.3203 15.1096 27.2815C15 26.723 15 26.0944 15 24.8373L15 23.1627C15 21.9056 15 21.277 15.1096 20.7185C15.7056 17.6797 18.1896 16.3232 21.0511 15.516C22.2401 15.1806 22.8346 15.013 23.3156 15.0012C25.3831 14.9506 26.9264 16.5231 27 18.375" stroke="white" stroke-width="2" stroke-linecap="round"/>
<path d="M33 24H22M33 24C33 23.2998 31.0057 21.9915 30.5 21.5M33 24C33 24.7002 31.0057 26.0085 30.5 26.5" stroke="white" stroke-width="2" stroke-linecap="round" stroke-linejoin="round"/>
</svg>
