<svg width="20" height="20" viewBox="0 0 20 20" fill="none" xmlns="http://www.w3.org/2000/svg">
<path d="M10.0013 1.0415C5.0613 1.0415 1.04297 5.06067 1.04297 9.99984C1.04297 14.939 5.0613 18.9582 10.0013 18.9582C14.9413 18.9582 18.9596 14.939 18.9596 9.99984C18.9596 5.06067 14.9413 1.0415 10.0013 1.0415ZM10.0013 17.7082C5.75047 17.7082 2.29297 14.2507 2.29297 9.99984C2.29297 5.749 5.75047 2.2915 10.0013 2.2915C14.2521 2.2915 17.7096 5.749 17.7096 9.99984C17.7096 14.2507 14.2521 17.7082 10.0013 17.7082ZM12.3171 6.50067C9.14213 8.20733 8.7913 8.559 8.67547 8.674C8.3213 9.02817 8.1263 9.499 8.1263 9.99984C8.1263 10.5007 8.3213 10.9715 8.67547 11.3257C9.02963 11.6798 9.50047 11.8748 10.0013 11.8748C10.5021 11.8748 10.973 11.6798 11.3263 11.3257C11.4413 11.2115 11.7913 10.8623 13.5005 7.68401C13.6846 7.34151 13.6238 6.9265 13.3488 6.6515C13.0746 6.37733 12.6596 6.3165 12.3171 6.50067ZM10.443 10.4415L10.8846 10.8832L10.443 10.4415C10.2071 10.6773 9.79546 10.6782 9.5588 10.4415C9.44046 10.3232 9.37546 10.1665 9.37546 9.99984C9.37546 9.83317 9.44046 9.67651 9.5588 9.55817C9.69046 9.429 10.358 9.00401 11.7888 8.21151C10.7355 10.1157 10.473 10.4107 10.443 10.4415ZM5.6263 9.99984C5.6263 10.7873 5.8238 11.5215 6.21463 12.1815C6.39046 12.479 6.29212 12.8615 5.99462 13.0373C5.89462 13.0965 5.78547 13.124 5.67714 13.124C5.46381 13.124 5.25548 13.014 5.13881 12.8173C4.64048 11.974 4.3763 10.9998 4.3763 9.999C4.3763 6.89733 6.89964 4.374 10.0013 4.374C10.408 4.374 10.8046 4.4165 11.2155 4.504C11.553 4.5765 11.768 4.90818 11.6963 5.24568C11.6246 5.58318 11.2905 5.79734 10.9546 5.72567C8.17548 5.13401 5.6263 7.26984 5.6263 9.99984ZM15.6263 9.99984C15.6263 10.9998 15.363 11.974 14.8638 12.8182C14.7471 13.0157 14.5388 13.1248 14.3255 13.1248C14.2171 13.1248 14.108 13.0973 14.008 13.0382C13.7113 12.8623 13.6121 12.479 13.788 12.1823C14.178 11.5223 14.3763 10.7882 14.3763 10.0007C14.3763 9.68151 14.3421 9.37068 14.273 9.04901C14.2005 8.71151 14.4155 8.37899 14.753 8.30649C15.0921 8.23399 15.423 8.44817 15.4955 8.78567C15.5838 9.194 15.6263 9.5915 15.6263 9.99984Z" fill="#818898"/>
</svg>
