<svg width="16" height="16" viewBox="0 0 16 16" fill="none" xmlns="http://www.w3.org/2000/svg">
<path d="M6.00472 7.16667C4.44205 7.16667 3.17139 5.89533 3.17139 4.33333C3.17139 2.77133 4.44205 1.5 6.00472 1.5C7.56739 1.5 8.83805 2.77133 8.83805 4.33333C8.83805 5.89533 7.56739 7.16667 6.00472 7.16667ZM6.00472 2.5C4.99339 2.5 4.17139 3.322 4.17139 4.33333C4.17139 5.34467 4.99339 6.16667 6.00472 6.16667C7.01605 6.16667 7.83805 5.34467 7.83805 4.33333C7.83805 3.322 7.01539 2.5 6.00472 2.5ZM8.66333 14.5H3.33407C1.72073 14.5 0.832031 13.6167 0.832031 12.0127C0.832031 10.2387 1.83603 8.16667 4.66536 8.16667H7.33203C10.1614 8.16667 11.1654 10.238 11.1654 12.0127C11.1654 13.6167 10.2767 14.5 8.66333 14.5ZM4.66536 9.16667C2.0367 9.16667 1.83203 11.3447 1.83203 12.0127C1.83203 13.0554 2.2814 13.5 3.33407 13.5H8.66333C9.716 13.5 10.1654 13.0554 10.1654 12.0127C10.1654 11.3454 9.9607 9.16667 7.33203 9.16667H4.66536ZM11.0387 7.45996C10.4327 7.45996 9.86337 7.2293 9.43603 6.81063C9.2387 6.6173 9.23473 6.30069 9.42806 6.10335C9.62206 5.90602 9.93867 5.90336 10.1353 6.09603C10.3747 6.3307 10.6961 6.45996 11.0387 6.45996C11.7754 6.45996 12.3527 5.88331 12.3527 5.14665C12.3527 4.42265 11.7634 3.83333 11.0387 3.83333C10.8334 3.83333 10.6481 3.87534 10.4874 3.95801C10.2427 4.08467 9.94071 3.98736 9.81405 3.74202C9.68738 3.49669 9.7847 3.19535 10.03 3.06868C10.334 2.91268 10.6734 2.83333 11.0387 2.83333C12.3147 2.83333 13.3527 3.87131 13.3527 5.14665C13.352 6.42198 12.3147 7.45996 11.0387 7.45996ZM13.1054 13.1667H12.652C12.376 13.1667 12.152 12.9427 12.152 12.6667C12.152 12.3907 12.376 12.1667 12.652 12.1667H13.1054C13.8687 12.1667 14.1654 11.8734 14.1654 11.12C14.1654 10.6274 14.014 9.02002 12.072 9.02002H11.0647C10.7887 9.02002 10.5647 8.79602 10.5647 8.52002C10.5647 8.24402 10.7887 8.02002 11.0647 8.02002H12.072C14.3554 8.02002 15.1654 9.69004 15.1654 11.12C15.1654 12.4207 14.4147 13.1667 13.1054 13.1667Z" fill="#25314C"/>
</svg>
