<svg width="14" height="14" viewBox="0 0 14 14" fill="none" xmlns="http://www.w3.org/2000/svg">
<path d="M9.65637 12.6885C9.38862 12.6885 9.11914 12.6523 8.85314 12.5794C5.25748 11.5924 2.40964 8.74692 1.42205 5.153C1.19747 4.33575 1.32052 3.48408 1.76969 2.75608C2.2206 2.02458 2.96206 1.50891 3.80381 1.34033C4.35972 1.22891 4.91739 1.47742 5.20147 1.95692L6.11321 3.49632C6.55596 4.24416 6.33597 5.20782 5.61205 5.68907L4.95239 6.12775C5.56897 7.39417 6.60605 8.43367 7.86663 9.04967L8.31125 8.38642C8.79484 7.66367 9.75905 7.44725 10.5063 7.89233L12.0481 8.81166C12.5253 9.09632 12.7726 9.65282 12.6635 10.1971C12.4955 11.0388 11.9792 11.7802 11.2483 12.2312C10.7571 12.5339 10.2105 12.6885 9.65637 12.6885ZM4.07155 2.18733C4.04296 2.18733 4.01381 2.19025 3.98581 2.19609C3.37098 2.31917 2.83898 2.68958 2.51523 3.21516C2.19498 3.73433 2.10688 4.34042 2.26672 4.92083C3.17263 8.219 5.78538 10.83 9.08471 11.7353C9.66513 11.8946 10.2706 11.8059 10.7886 11.4863C11.3136 11.1625 11.6847 10.6293 11.8054 10.025C11.8416 9.84358 11.7593 9.6575 11.6001 9.563L10.0583 8.64366C9.70943 8.43658 9.262 8.53808 9.038 8.8735L8.38759 9.84476C8.27092 10.0186 8.04583 10.0851 7.85567 10.0046C6.12725 9.28241 4.72141 7.8725 3.99749 6.13766C3.91699 5.944 3.98516 5.72117 4.15899 5.60508L5.12799 4.96049C5.46398 4.73708 5.56604 4.28966 5.36012 3.94258L4.44838 2.40316C4.36846 2.26724 4.2238 2.18733 4.07155 2.18733ZM8.67455 8.62967H8.68039H8.67455ZM10.3552 5.83316C10.3552 4.62683 9.37345 3.64566 8.1677 3.64566C7.9262 3.64566 7.7302 3.84166 7.7302 4.08316C7.7302 4.32466 7.9262 4.52066 8.1677 4.52066C8.89103 4.52066 9.4802 5.10925 9.4802 5.83316C9.4802 6.07466 9.6762 6.27066 9.9177 6.27066C10.1592 6.27066 10.3552 6.07466 10.3552 5.83316ZM12.1052 5.83316C12.1052 3.662 10.3389 1.89566 8.1677 1.89566C7.9262 1.89566 7.7302 2.09166 7.7302 2.33316C7.7302 2.57466 7.9262 2.77066 8.1677 2.77066C9.85645 2.77066 11.2302 4.14441 11.2302 5.83316C11.2302 6.07466 11.4262 6.27066 11.6677 6.27066C11.9092 6.27066 12.1052 6.07466 12.1052 5.83316Z" fill="#818898"/>
</svg>
