<svg width="512" height="512" viewBox="0 0 512 512" fill="none" xmlns="http://www.w3.org/2000/svg">
<path d="M494.533 172.016L378.634 56.1171C369.071 46.5541 359.371 41.7051 349.805 41.7051C336.671 41.7051 321.333 51.6951 321.333 79.8501V119.308C237.129 122.978 158.494 157.511 98.518 217.484C34.994 281.003 0.00700073 365.459 7.27998e-07 455.292C-0.000979696 458.44 0.988345 461.508 2.82786 464.062C4.66738 466.616 7.26386 468.527 10.2496 469.524C13.2353 470.521 16.4589 470.553 19.4639 469.616C22.4689 468.679 25.1029 466.82 26.993 464.303C97.81 370.038 204.431 314.33 321.333 309.931V348.78C321.333 376.934 336.67 386.925 349.804 386.926H349.805C359.371 386.926 369.072 382.077 378.634 372.514L494.532 256.614C505.797 245.352 512 230.33 512 214.316C512 198.301 505.797 183.279 494.533 172.016ZM473.32 235.401L357.421 351.302C355.198 353.525 353.357 354.929 351.999 355.782C351.642 354.219 351.333 351.924 351.333 348.781V294.65C351.333 286.366 344.617 279.65 336.333 279.65C269.686 279.65 206.001 294.92 147.05 325.034C104.73 346.653 66.044 375.755 33.283 410.413C55.077 262.716 182.679 148.982 336.333 148.982C344.617 148.982 351.333 142.266 351.333 133.982V79.8501C351.333 76.7071 351.642 74.4121 351.998 72.8501C353.356 73.7031 355.198 75.1071 357.421 77.3301L473.32 193.23C478.918 198.827 482 206.315 482 214.316C482 222.316 478.918 229.804 473.32 235.401Z" fill="black"/>
</svg>
