<svg width="14" height="14" viewBox="0 0 14 14" fill="none" xmlns="http://www.w3.org/2000/svg">
<path d="M11.9596 7.87484C11.9596 10.6132 9.73971 12.8332 7.0013 12.8332C4.26289 12.8332 2.04297 10.6132 2.04297 7.87484C2.04297 5.13643 4.26289 2.9165 7.0013 2.9165C9.73971 2.9165 11.9596 5.13643 11.9596 7.87484Z" stroke="#818898"/>
<path d="M8.75 1.40804C8.1937 1.2507 7.60668 1.1665 7 1.1665C6.39332 1.1665 5.8063 1.2507 5.25 1.40804" stroke="#818898" stroke-linecap="round"/>
<path d="M7.875 8.1665C7.875 8.64975 7.48325 9.0415 7 9.0415C6.51675 9.0415 6.125 8.64975 6.125 8.1665C6.125 7.68325 6.51675 7.2915 7 7.2915C7.48325 7.2915 7.875 7.68325 7.875 8.1665Z" stroke="#818898"/>
<path d="M7 7V5.25" stroke="#818898" stroke-linecap="round" stroke-linejoin="round"/>
</svg>
