<svg width="24" height="24" viewBox="0 0 24 24" fill="none" xmlns="http://www.w3.org/2000/svg">
<path d="M14 3.5C17.7712 3.5 19.6569 3.5 20.8284 4.7448C22 5.98959 22 7.99306 22 12C22 16.0069 22 18.0104 20.8284 19.2552C19.6569 20.5 17.7712 20.5 14 20.5L10 20.5C6.22876 20.5 4.34315 20.5 3.17157 19.2552C2 18.0104 2 16.0069 2 12C2 7.99306 2 5.98959 3.17157 4.7448C4.34315 3.5 6.22876 3.5 10 3.5L14 3.5Z" stroke="#030304" stroke-width="1.5" stroke-linejoin="round"/>
<path d="M5 15.5001C6.60865 13.3628 10.3539 13.2461 12 15.5001M10.249 10.2502C10.249 11.2167 9.46552 12.0002 8.49902 12.0002C7.53253 12.0002 6.74902 11.2167 6.74902 10.2502C6.74902 9.28375 7.53253 8.50024 8.49902 8.50024C9.46552 8.50024 10.249 9.28375 10.249 10.2502Z" stroke="#030304" stroke-width="1.5" stroke-linecap="round"/>
<path d="M15 9.5L19 9.5" stroke="#030304" stroke-width="1.5" stroke-linecap="round"/>
<path d="M15 13.5H17" stroke="#030304" stroke-width="1.5" stroke-linecap="round"/>
</svg>
